<?xml version="1.0" standalone="no"?>
<!DOCTYPE svg PUBLIC "-//W3C//DTD SVG 20010904//EN"
 "http://www.w3.org/TR/2001/REC-SVG-20010904/DTD/svg10.dtd">
<svg version="1.0" xmlns="http://www.w3.org/2000/svg"
 width="300.000000pt" height="300.000000pt" viewBox="0 0 300.000000 300.000000"
 preserveAspectRatio="xMidYMid meet">
<metadata>
Created by potrace 1.10, written by Peter Selinger 2001-2011
</metadata>
<g transform="translate(0.000000,300.000000) scale(0.100000,-0.100000)"
fill="#000000" stroke="none">
<path d="M745 2461 c-69 -17 -116 -55 -151 -121 -16 -29 -19 -63 -22 -198 -2
-90 -1 -174 2 -187 7 -28 31 -38 57 -25 18 10 19 23 19 183 0 274 3 277 315
277 151 0 214 3 223 12 18 18 14 46 -7 58 -22 11 -388 12 -436 1z"/>
<path d="M1037 2282 c-14 -15 -17 -40 -17 -120 l0 -102 -102 1 c-93 1 -104 -1
-120 -21 -9 -11 -14 -29 -11 -38 12 -35 35 -42 135 -42 l98 0 0 -99 c0 -105
10 -131 50 -131 40 0 50 26 50 131 l0 99 96 0 c109 0 134 9 134 48 0 46 -15
52 -127 52 l-103 0 0 103 c0 88 -3 106 -18 120 -24 22 -45 21 -65 -1z m44
-131 c5 -108 18 -121 115 -121 75 0 104 -6 104 -21 0 -5 -36 -9 -81 -9 -44 0
-89 -4 -99 -10 -25 -14 -40 -63 -40 -136 0 -35 -4 -66 -10 -69 -11 -7 -12 2
-16 85 -1 30 -2 63 -3 73 -1 9 -10 26 -21 37 -16 16 -33 20 -94 20 -41 0 -78
5 -81 10 -3 6 -5 10 -3 11 2 0 39 3 83 6 91 6 115 20 115 67 0 54 12 136 20
136 4 0 9 -36 11 -79z"/>
<path d="M1520 2273 c-39 -14 -40 -27 -40 -385 l0 -348 -350 0 c-337 0 -351
-1 -370 -20 -25 -25 -25 -51 -2 -81 l19 -22 351 2 352 2 0 -354 c0 -330 1
-355 18 -370 24 -22 65 -21 85 1 15 17 17 57 17 371 l0 352 352 -2 c352 -1
352 -1 370 21 23 29 23 55 -2 80 -19 19 -33 20 -370 20 l-350 0 0 348 c0 263
-3 352 -12 364 -15 19 -47 28 -68 21z m41 -87 c3 -20 7 -172 8 -339 2 -286 3
-303 22 -322 19 -19 35 -20 355 -23 292 -3 336 -5 341 -19 3 -8 0 -19 -8 -24
-8 -5 -164 -9 -346 -9 l-333 0 -14 -22 c-11 -18 -15 -89 -18 -351 -5 -336 -8
-366 -43 -337 -13 11 -15 57 -15 343 0 293 -2 332 -17 349 -15 17 -39 18 -317
19 -320 0 -381 5 -381 29 0 13 48 16 336 20 310 5 339 6 357 24 20 17 21 30
24 350 2 182 7 337 11 344 14 22 32 7 38 -32z"/>
<path d="M1927 2238 c-29 -23 -40 -67 -22 -95 44 -66 135 -40 135 40 0 50 -72
85 -113 55z m66 -50 c7 -21 -4 -38 -23 -38 -23 0 -34 16 -26 35 7 18 43 20 49
3z"/>
<path d="M1160 2160 c18 -12 234 -12 270 0 15 5 -37 8 -130 9 -103 0 -150 -3
-140 -9z"/>
<path d="M1645 2161 c30 -12 198 -13 215 -1 10 7 -24 10 -110 9 -69 0 -116 -4
-105 -8z"/>
<path d="M2075 2161 c11 -5 33 -10 48 -10 57 -2 129 -55 150 -111 5 -13 6 -13
6 1 1 22 -38 78 -71 102 -19 15 -47 22 -90 24 -45 2 -57 0 -43 -6z"/>
<path d="M931 2134 c-44 -37 -39 -51 7 -18 55 41 58 44 40 44 -9 0 -30 -12
-47 -26z"/>
<path d="M1704 2052 c-24 -15 -26 -50 -5 -71 20 -20 32 -21 270 -21 214 0 252
2 265 16 19 18 21 55 4 72 -13 13 -514 18 -534 4z m464 -29 c64 -15 0 -23
-197 -23 -194 0 -261 7 -219 23 18 7 388 7 416 0z"/>
<path d="M2276 1983 c-10 -63 -7 -401 4 -408 7 -4 10 72 10 219 0 124 -2 226
-4 226 -2 0 -6 -17 -10 -37z"/>
<path d="M866 1914 c-10 -26 -6 -318 4 -334 6 -10 10 46 10 168 0 100 -2 182
-4 182 -2 0 -7 -7 -10 -16z"/>
<path d="M1919 1902 c-28 -23 -30 -73 -4 -102 41 -45 125 -12 125 50 0 61 -71
91 -121 52z m69 -31 c21 -13 10 -46 -16 -49 -24 -4 -38 18 -28 43 6 17 24 19
44 6z"/>
<path d="M2278 1384 c-5 -4 -8 -114 -8 -245 0 -246 -4 -275 -43 -318 -43 -47
-70 -51 -330 -52 -134 -1 -250 -5 -258 -10 -8 -5 92 -9 249 -9 242 0 266 2
301 20 47 23 77 60 92 109 11 41 9 517 -3 505z"/>
<path d="M866 1363 c-10 -25 -5 -222 5 -229 5 -3 9 51 9 120 0 69 -2 126 -4
126 -2 0 -7 -8 -10 -17z"/>
<path d="M1764 1235 c-23 -34 -12 -55 65 -128 l69 -65 -74 -73 c-76 -75 -86
-96 -58 -123 29 -30 56 -18 130 55 l71 70 68 -70 c70 -72 104 -88 133 -59 29
29 13 63 -59 133 l-70 68 71 72 c60 61 71 77 68 101 -2 21 -11 31 -31 38 -26
9 -32 5 -102 -64 l-74 -74 -75 72 c-80 78 -106 87 -132 47z m121 -85 c35 -33
74 -60 85 -60 11 0 50 28 87 62 80 74 100 62 25 -16 -75 -77 -79 -90 -46 -134
15 -20 42 -52 61 -69 33 -32 42 -53 24 -53 -5 0 -31 21 -58 46 -72 70 -87 78
-115 63 -13 -7 -48 -37 -80 -66 -78 -75 -85 -49 -9 33 34 35 61 73 61 84 0 19
-28 56 -87 118 -18 19 -33 38 -33 43 0 20 24 6 85 -51z"/>
<path d="M796 1069 c-16 -23 -12 -47 12 -66 20 -16 493 -18 523 -3 22 12 26
59 7 78 -9 9 -83 12 -269 12 -251 0 -258 -1 -273 -21z m504 -29 c0 -6 -80 -10
-219 -10 -136 0 -222 4 -226 10 -4 7 72 10 219 10 144 0 226 -4 226 -10z"/>
<path d="M2368 1069 c-16 -9 -18 -29 -18 -182 0 -274 -3 -277 -315 -277 -218
0 -235 -3 -235 -42 0 -35 34 -40 253 -36 239 4 265 10 325 84 43 52 52 101 52
278 0 127 -3 157 -16 170 -18 19 -23 19 -46 5z"/>
<path d="M867 945 c-9 -27 8 -93 31 -124 10 -14 36 -36 58 -48 37 -22 49 -23
269 -23 155 0 225 4 215 10 -9 6 -97 10 -211 9 -115 0 -213 4 -237 11 -52 13
-91 62 -107 133 -9 39 -13 47 -18 32z"/>
</g>
</svg>
